<?xml version="1.0" encoding="UTF-8"?>
<svg version="1.1" xmlns="http://www.w3.org/2000/svg" width="508" height="446">
<path d="M0 0 C167.64 0 335.28 0 508 0 C508 147.18 508 294.36 508 446 C340.36 446 172.72 446 0 446 C0 298.82 0 151.64 0 0 Z " fill="#0A0A0A" transform="translate(0,0)"/>
<path d="M0 0 C1.084021 0.00523682 2.16804199 0.01047363 3.28491211 0.01586914 C4.45473633 0.0190918 5.62456055 0.02231445 6.82983398 0.02563477 C8.0615332 0.03401367 9.29323242 0.04239258 10.56225586 0.05102539 C12.41560547 0.05779297 12.41560547 0.05779297 14.30639648 0.06469727 C17.37089703 0.07652931 20.43530307 0.09301366 23.49975586 0.11352539 C28.11030187 11.30881397 32.46442224 22.54760104 36.35717773 34.01416016 C42.64728301 52.49736613 49.57442225 70.76670222 56.33688354 89.08056641 C62.91790422 106.90757859 69.48964753 124.73772426 75.93725586 142.61352539 C76.18607513 143.30295227 76.43489441 143.99237915 76.69125366 144.70269775 C79.00214994 151.11019615 81.29537622 157.52359312 83.55279541 163.95014954 C87.83724046 176.14274071 92.26492432 188.28290659 96.68725586 200.42602539 C97.56667291 202.84235834 98.44606702 205.25869964 99.32543945 207.67504883 C119.1374166 262.19990582 119.1374166 262.19990582 139.30444336 316.59399414 C139.55605225 317.26492599 139.80766113 317.93585785 140.06689453 318.62712097 C141.72037406 323.03624308 141.72037406 323.03624308 143.37545776 327.44476318 C145.217998 332.35066018 147.0527587 337.25936342 148.87890625 342.17138672 C149.50750402 343.85822546 150.13874223 345.54408233 150.77246094 347.22900391 C151.70514946 349.71021743 152.62871331 352.19466448 153.55053711 354.67993164 C153.83278641 355.42481339 154.11503571 356.16969513 154.40583801 356.93714905 C154.66668686 357.64576584 154.92753571 358.35438263 155.19628906 359.08447266 C155.42467972 359.69573502 155.65307037 360.30699738 155.88838196 360.93678284 C160.95392426 378.97219695 157.49975586 398.38024268 157.49975586 417.11352539 C121.85975586 417.11352539 86.21975586 417.11352539 49.49975586 417.11352539 C49.49975586 414.14352539 49.49975586 411.17352539 49.49975586 408.11352539 C50.44334961 407.8827832 51.38694336 407.65204102 52.35913086 407.41430664 C70.97643068 402.82361003 70.97643068 402.82361003 84.80834961 390.26196289 C89.03916144 382.67870847 88.97710079 372.33631965 87.00080872 364.0118866 C86.3569058 361.91138576 85.65113143 359.84572552 84.90991211 357.77758789 C84.64377609 357.00831467 84.37764008 356.23904144 84.10343933 355.44645691 C83.25000947 352.99674878 82.37799913 350.55443955 81.49975586 348.11352539 C81.21563843 347.32102386 80.931521 346.52852234 80.63879395 345.71200562 C78.871924 340.80036526 77.07451397 335.90034476 75.2649231 331.00430298 C73.61267875 326.53270532 71.96999819 322.05760018 70.32788086 317.58227539 C70.0005043 316.69026932 69.67312775 315.79826324 69.33583069 314.87922668 C65.89884356 305.49916419 62.55794548 296.08611272 59.23608398 286.66479492 C56.15371659 277.92790196 53.00933438 269.21567543 49.78320312 260.53076172 C49.47954834 259.70600342 49.17589355 258.88124512 48.86303711 258.03149414 C48.59789307 257.31759521 48.33274902 256.60369629 48.05957031 255.86816406 C47.49975586 254.11352539 47.49975586 254.11352539 47.49975586 252.11352539 C8.55975586 252.11352539 -30.38024414 252.11352539 -70.50024414 252.11352539 C-70.99524414 255.08352539 -70.99524414 255.08352539 -71.50024414 258.11352539 C-72.11001969 260.02054544 -72.77235896 261.91128589 -73.47680664 263.78540039 C-74.10087402 265.46291382 -74.10087402 265.46291382 -74.73754883 267.17431641 C-75.19548828 268.39175537 -75.65342773 269.60919434 -76.12524414 270.86352539 C-77.1260779 273.55366102 -78.12189683 276.24564368 -79.11743164 278.93774414 C-79.38382446 279.6569957 -79.65021729 280.37624725 -79.92468262 281.11729431 C-83.10172593 289.71107067 -86.19578154 298.3344875 -89.27972412 306.96203613 C-89.91481915 308.7380336 -90.55088901 310.51368285 -91.18804932 312.28894043 C-94.65171122 321.94032232 -98.04923678 331.6125909 -101.32836914 341.32836914 C-101.61750183 342.17557022 -101.90663452 343.0227713 -102.20452881 343.89564514 C-106.81294362 357.67404084 -109.76651288 373.96287362 -104.50024414 387.98852539 C-100.51135559 395.87641204 -93.73299953 401.11979616 -85.50024414 404.11352539 C-81.54853547 405.2495402 -77.58889586 406.29530417 -73.59790039 407.28149414 C-70.50024414 408.11352539 -70.50024414 408.11352539 -69.50024414 409.11352539 C-69.50024414 411.75352539 -69.50024414 414.39352539 -69.50024414 417.11352539 C-109.76024414 417.11352539 -150.02024414 417.11352539 -191.50024414 417.11352539 C-191.50024414 413.81352539 -191.50024414 410.51352539 -191.50024414 407.11352539 C-190.08485352 406.5856543 -190.08485352 406.5856543 -188.64086914 406.04711914 C-164.45239679 396.83155819 -150.65320516 383.29541831 -139.43774414 360.23852539 C-138.75071411 358.83485718 -138.75071411 358.83485718 -138.04980469 357.40283203 C-133.29978501 347.30935146 -129.55045578 336.82582797 -125.69815063 326.36590576 C-124.51898559 323.16440942 -123.33416427 319.96506638 -122.14746094 316.76635742 C-120.13855167 311.34942247 -118.1342976 305.93077935 -116.13137817 300.5116272 C-109.04804015 281.34973596 -101.92873091 262.20205583 -94.7409668 243.07910156 C-90.44305371 231.64259055 -86.1833638 220.19231089 -81.93881226 208.73590088 C-77.85665706 197.72160549 -73.70833232 186.73436034 -69.52490234 175.75805664 C-66.26054661 167.17196313 -63.08400034 158.5558278 -59.93774414 149.92602539 C-54.19976513 134.19473753 -48.22676041 118.55912678 -42.08618164 102.98071289 C-38.53122409 93.95970444 -35.03153921 84.94653723 -31.86499023 75.78149414 C-29.28667515 68.38029456 -26.43829192 61.08581366 -23.60742188 53.77832031 C-19.52812082 43.23233521 -15.55965882 32.64629014 -11.61108398 22.05078125 C-3.44311855 0.15633728 -3.44311855 0.15633728 0 0 Z " fill="#FCFBFC" transform="translate(191.500244140625,4.886474609375)"/>
<path d="M0 0 C46.86 0 93.72 0 142 0 C142 1.65 142 3.3 142 5 C140.80375 5.350625 139.6075 5.70125 138.375 6.0625 C123.95885016 10.92110746 114.14491853 16.90035561 107.26171875 30.7421875 C104.03408034 39.07608978 103.71106256 47.04966043 103.73930359 55.92219543 C103.73547804 57.20365391 103.73165249 58.48511238 103.72771102 59.80540293 C103.71746878 63.34202676 103.71960316 66.87854878 103.72389162 70.4151808 C103.72636575 74.23738474 103.71733613 78.05956461 103.70985413 81.88175964 C103.69712386 89.36228451 103.69531137 96.84277344 103.69765439 104.32330731 C103.69943969 110.40613662 103.69768336 116.48895506 103.69342995 122.57178307 C103.69283476 123.43856241 103.69223957 124.30534176 103.69162634 125.19838714 C103.69041455 126.95944256 103.68920042 128.72049798 103.68798397 130.4815534 C103.67711473 146.98627629 103.67926792 163.49097873 103.68536881 179.99570277 C103.6905366 195.07992235 103.67928507 210.16407733 103.66027059 225.24828414 C103.64087727 240.75240326 103.63263887 256.25649183 103.63639385 271.76062316 C103.63830373 280.45870603 103.63583918 289.15673394 103.62167931 297.8548069 C103.60974543 305.26020601 103.60838302 312.66551631 103.62046947 320.07091669 C103.6263443 323.84559527 103.62749654 327.62011158 103.61546707 331.39477921 C103.60255063 335.49559829 103.61310591 339.5960338 103.6257782 343.69685364 C103.61471677 345.46785052 103.61471677 345.46785052 103.60343188 347.27462512 C103.68994484 360.62548248 106.82315507 374.29160596 116.1640625 384.34375 C123.38780973 390.86049218 130.92302672 393.95259886 140.2265625 396.2734375 C143 397 143 397 144 398 C144 400.31 144 402.62 144 405 C109.68 405 75.36 405 40 405 C40 342.3 40 279.6 40 215 C21.52 215 3.04 215 -16 215 C-24 191 -24 191 -24 189 C-2.88 189 18.24 189 40 189 C39.85096775 165.32321178 39.85096775 165.32321178 39.69335938 141.64648438 C39.62713665 131.9839834 39.56183577 122.32148275 39.50268555 112.65893555 C39.45959246 105.62013137 39.4132541 98.58135706 39.36312145 91.54259938 C39.3367211 87.82038964 39.31187608 84.09818506 39.29092598 80.37594032 C39.26739903 76.20671854 39.23662225 72.03757889 39.20532227 67.8684082 C39.19668907 66.04499153 39.19668907 66.04499153 39.18788147 64.18473816 C40.11952592 51.31516098 40.11952592 51.31516098 37 40 C36.72692585 38.50402857 36.48192904 37.00290017 36.25 35.5 C34.40857139 26.14607642 29.88201496 19.37531973 22 14 C15.87112806 10.54104083 9.84118712 8.45444592 2.8984375 7.359375 C1 7 1 7 0 6 C0 4.02 0 2.04 0 0 Z " fill="#FDFDFE" transform="translate(337,16)"/>
<path d="M0 0 C2.63099125 1.31549562 2.68348585 2.33100717 3.6640625 5.06640625 C3.97714355 5.93152832 4.29022461 6.79665039 4.61279297 7.68798828 C5.11383545 9.11087158 5.11383545 9.11087158 5.625 10.5625 C5.97836426 11.54976074 6.33172852 12.53702148 6.69580078 13.55419922 C9.53910543 21.55453979 12.21816301 29.60658727 14.87988281 37.66870117 C20.05386662 53.28049579 25.72213582 68.72063597 31.328125 84.18121338 C32.95747243 88.6769962 34.58357591 93.1739498 36.20953369 97.67095947 C37.41739612 101.00697477 38.6302617 104.34114298 39.84326172 107.67529297 C40.60278126 109.77432644 41.36206825 111.87344408 42.12109375 113.97265625 C42.4676149 114.92073654 42.81413605 115.86881683 43.17115784 116.84562683 C45.46216177 123.20323918 47.20966433 129.43543588 49 136 C16.66 136 -15.68 136 -49 136 C-47.25169142 130.17230473 -45.58328237 124.64404653 -43.43359375 119.0078125 C-43.19860168 118.3876123 -42.96360962 117.76741211 -42.72149658 117.12841797 C-42.22122843 115.80826476 -41.71958837 114.4886307 -41.21664429 113.16949463 C-39.8704287 109.63699035 -38.53584885 106.10011307 -37.203125 102.5625 C-36.79769722 101.48634933 -36.79769722 101.48634933 -36.38407898 100.38845825 C-33.7337175 93.33042553 -31.20107147 86.23291402 -28.6875 79.125 C-26.00297481 71.538023 -23.273782 63.98360181 -20.3125 56.5 C-17.3294919 48.96000026 -14.62740943 41.34196794 -11.9765625 33.6796875 C-9.55359251 26.68594133 -7.0559662 19.71883073 -4.5625 12.75 C-4.10831296 11.47998193 -3.65412992 10.20996244 -3.19995117 8.93994141 C-2.13383173 5.95977046 -1.06720624 2.9797819 0 0 Z " fill="#0C0C0C" transform="translate(180,94)"/>
</svg>
